<?xml version="1.0" encoding="UTF-8"?><svg xmlns="http://www.w3.org/2000/svg" viewBox="0 0 250 111.05"><defs><style>.d{fill:#1787c6;fill-rule:evenodd;}</style></defs><g id="a"/><g id="b"><g id="c"><g><path class="d" d="M22.47,2.37h12.03V36.7c0,3.18-.74,6.02-2.22,8.52-1.48,2.5-3.54,4.43-6.19,5.81-2.65,1.37-5.59,2.06-8.85,2.06-5.45,0-9.69-1.37-12.71-4.12-3.03-2.75-4.53-6.64-4.53-11.68H12.1c0,2.29,.39,3.95,1.18,4.98,.79,1.03,2.11,1.55,3.97,1.55,1.67,0,2.96-.63,3.87-1.87,.9-1.25,1.36-2.99,1.36-5.24V2.37Z"/><path class="d" d="M41.47,5.63c0-1.65,.6-3,1.79-4.05,1.19-1.05,2.74-1.58,4.64-1.58s3.45,.53,4.64,1.58c1.19,1.05,1.79,2.4,1.79,4.05s-.6,3-1.79,4.06c-1.19,1.05-2.74,1.58-4.64,1.58s-3.45-.53-4.64-1.58c-1.19-1.05-1.79-2.41-1.79-4.06m12.3,46.77h-11.61V15.22h11.61V52.4Z"/><path class="d" d="M59.45,33.47c0-3.71,.72-7.02,2.16-9.91,1.44-2.9,3.52-5.13,6.22-6.68,2.7-1.56,5.87-2.34,9.52-2.34,5.57,0,9.95,1.72,13.16,5.17,3.21,3.45,4.81,8.14,4.81,14.07v.41c0,5.8-1.61,10.39-4.83,13.8-3.22,3.4-7.58,5.1-13.08,5.1s-9.54-1.59-12.75-4.76c-3.21-3.17-4.94-7.47-5.19-12.9l-.03-1.96Zm11.58,.72c0,3.44,.54,5.96,1.61,7.56,1.08,1.61,2.67,2.41,4.78,2.41,4.13,0,6.23-3.17,6.33-9.52v-1.17c0-6.67-2.13-10-6.39-10-3.87,0-5.97,2.88-6.29,8.62l-.04,2.1Z"/><polygon class="d" points="116.8 2.37 127.97 37.18 139.1 2.37 154.98 2.37 154.98 52.4 142.88 52.4 142.88 40.72 144.05 16.8 131.96 52.4 123.99 52.4 111.85 16.77 113.02 40.72 113.02 52.4 100.96 52.4 100.96 2.37 116.8 2.37"/><path class="d" d="M173.2,53.09h-.37c-3.42-.04-6.34-1.1-8.74-3.18-2.45-2.12-3.68-4.78-3.68-7.99,0-4.03,1.49-7.08,4.47-9.14,2.98-2.06,7.31-3.1,12.99-3.1h3.58v-1.97c0-3.43-1.48-5.14-4.43-5.14-2.75,0-4.13,1.36-4.13,4.08h-11.58c0-3.59,1.53-6.51,4.59-8.75,3.06-2.24,6.96-3.36,11.7-3.36s8.49,1.16,11.24,3.47c2.75,2.31,4.16,5.49,4.23,9.52v16.46c.05,3.41,.57,6.02,1.58,7.83v.58h-11.58c-.41-.76-.78-1.87-1.1-3.33-2.09,2.64-5.02,3.98-8.75,4.02m2.6-8.25c1.44,0,2.64-.31,3.59-.93,.95-.62,1.64-1.32,2.05-2.1v-5.94h-3.37c-4.03,0-6.05,1.81-6.05,5.43,0,1.05,.36,1.9,1.07,2.56,.71,.65,1.61,.98,2.72,.98"/><path class="d" d="M221.96,25.7l-3.81-.27c-3.65,0-5.98,1.15-7.01,3.44v23.54h-11.58V15.22h10.86l.38,4.78c1.95-3.64,4.66-5.46,8.15-5.46,1.24,0,2.31,.14,3.23,.41l-.21,10.76Z"/><path class="d" d="M241.34,5.98V15.22h6.12v8.04h-6.12v17.01c0,1.4,.25,2.37,.76,2.92,.51,.55,1.5,.82,2.99,.82,1.15,0,2.11-.07,2.89-.21v8.28c-2.05,.65-4.19,.99-6.43,1h-.2c-3.94-.02-6.85-.95-8.74-2.82-1.9-1.88-2.85-4.73-2.85-8.56V23.26h-4.74V15.22h4.74V5.98h11.58Z"/><path class="d" d="M169.67,86.16c1.82,0,3.03-1.48,3.03-3.23s-1.22-3.24-3.08-3.24-3.1,1.45-3.1,3.24,1.34,3.23,3.14,3.23m54.27,7.65c1.87,0,3.03-1.45,3.03-3.24,0-1.66-1.3-3.24-3.03-3.24-1.84,0-3.13,1.44-3.13,3.24s1.34,3.24,3.13,3.24m-87.32-3.24v-8.13c0-1.78-1.27-3.23-3.09-3.23s-3.09,1.45-3.09,3.23v8.13c0,1.69,1.27,3.24,3.02,3.24,1.89,0,3.15-1.41,3.15-3.24m27.69,12.24c1.44,1.15,3.01,1.67,4.83,1.67,1.38,0,3.61-.32,3.61-2.09s-2.26-2.05-3.61-2.05h-3.95c-.8,0-1.45-.65-1.45-1.45v-7.61l-.08-.43c-2.66-2.16-3.93-4.48-3.93-7.97,0-5.54,4.46-9.74,9.94-9.74,.85,0,1.55,.06,2.37,.28l.4,.08,.45-.27c1.45-.85,2.67-1.3,4.38-1.33h.89c.79,0,1.45,.66,1.45,1.45v3.68c0,.74-.54,1.34-1.23,1.45l.08,.14,.08,.13c.7,1.32,.94,2.7,.94,4.18,0,5.26-3.8,9.34-8.98,9.74v1.39c4.9,.26,9.03,3.05,9.03,8.38,0,5.78-5.02,8.6-10.3,8.61-2.75,0-6.27-1.02-8.43-2.78l-.71-.58c-.56-.43-.7-1.21-.36-1.83l1.77-3.15c.18-.37,.55-.63,.97-.71,.41-.08,.84,.02,1.18,.29,.13,.11,.49,.36,.68,.52m62.45-21.54c-.42-1.18-1.46-2.06-2.82-2.06s-2.52,.26-3.73,.96l-.71,.4c-.7,.4-1.59,.14-1.98-.55l-1.78-3.14c-.14-.22-.2-.47-.2-.71,0-.28-.03-.11,.05-.39,.1-.37,.35-.69,.68-.88,.21-.12,.45-.27,.66-.37l.16-.07c2.19-1.18,4.37-1.81,6.85-1.81,5.48,0,9.79,4.32,9.79,9.8v15.96c0,.8-.63,1.44-1.45,1.44h-2.83c-.48,0-.89-.15-1.23-.42-1.31,.65-2.86,.94-4.29,.94-5.49,0-9.94-4.25-9.94-9.79s4.35-9.79,9.94-9.79c.98,0,1.91,.21,2.82,.49m-20.49-1.68v10.98c0,1.75,1.28,3.24,3.07,3.24h1.26c.79,0,1.44,.65,1.44,1.44v3.66c0,.81-.66,1.46-1.44,1.46h-1.26c-.78,0-1.55-.09-2.3-.26-4.47-1.01-7.58-4.94-7.58-9.53,0-3.66,0-7.35,0-11.01h-1.96c-.8,0-1.46-.65-1.46-1.45v-3.5c0-.81,.67-1.44,1.46-1.44,.66,0,1.29,0,1.96,.02v-5.37c0-.79,.64-1.45,1.44-1.45h3.91c.8,0,1.45,.64,1.45,1.45v5.35h4.33c.79,0,1.44,.65,1.44,1.44v3.5c0,.8-.66,1.45-1.44,1.45,0,0-2.92,.02-4.33,.02m42.29,14.22c.79,0,1.44,.65,1.44,1.44v3.66c0,.81-.65,1.46-1.44,1.46h-1.26c-.76,0-1.52-.08-2.26-.25-4.54-.98-7.67-4.91-7.67-9.55v-26.15c0-.8,.65-1.45,1.44-1.45h3.92c.81,0,1.45,.65,1.45,1.45v26.15c0,1.77,1.32,3.24,3.12,3.24h1.26Zm-53.78,0c.8,0,1.45,.65,1.45,1.44v3.66c0,.81-.64,1.45-1.45,1.45h-1.24c-.76,0-1.52-.07-2.26-.24-4.54-.98-7.69-4.91-7.69-9.55v-15.96c0-.81,.64-1.44,1.45-1.44h3.92c.78,0,1.43,.65,1.43,1.44v15.96c0,1.77,1.32,3.24,3.14,3.24h1.24Zm-36.7,0c.81,0,1.45,.65,1.45,1.44v3.66c0,.81-.64,1.45-1.45,1.45h-1.24c-.78,0-1.55-.07-2.29-.24-4.53-.98-7.67-4.92-7.67-9.55v-15.96c0-.79,.65-1.44,1.45-1.44h3.91c.81,0,1.45,.63,1.45,1.44v15.96c0,1.77,1.32,3.24,3.14,3.24h1.24Zm-9.74-24.54c-.81,0-1.45-.64-1.45-1.45v-3.4c0-.8,.65-1.45,1.45-1.45h3.91c.81,0,1.45,.65,1.45,1.45v3.4c0,.8-.64,1.45-1.45,1.45h-3.91Zm36.7,0c-.81,0-1.45-.64-1.45-1.45v-3.4c0-.8,.64-1.45,1.45-1.45h3.92c.78,0,1.43,.65,1.43,1.45v3.4c0,.8-.65,1.45-1.43,1.45h-3.92Zm-48.51,3.85v-8.7c0-.81,.68-1.45,1.46-1.45h3.91c.79,0,1.46,.65,1.46,1.45v26.16c0,5.63-4.35,9.79-9.94,9.79s-9.81-4.3-9.81-9.79v-8.13c0-5.4,4.39-9.8,9.81-9.8,1.1,0,2.11,.14,3.11,.47"/></g></g></g></svg>
